# Blender 3.3.1
# www.blender.org
mtllib curve_left.mtl
o Cube.002
v 4.340652 -0.215087 -0.995420
v 4.340652 -0.170158 1.004075
v 5.064663 -0.187094 1.000000
v 5.064662 -0.198243 -1.000000
v 4.340652 0.215087 0.995418
v 5.068080 0.192671 1.000000
v 5.068080 0.192671 -1.000000
v -4.347479 0.170394 -1.004035
v -4.347478 0.214853 0.995471
v -5.068080 0.192671 1.000000
v -5.071489 0.192671 -1.000000
v -5.071488 -0.187195 1.000000
v -5.071489 -0.198141 -1.000000
v -4.347479 -0.214853 -0.995469
v 4.340652 0.170158 -1.004077
v 3.616642 0.142965 -0.949299
v 3.616642 -0.241844 -0.929042
v 2.892632 0.114792 -0.810801
v 2.892632 -0.268743 -0.773533
v 2.168621 0.096105 -0.631291
v 2.168621 -0.284592 -0.571640
v 1.444609 0.102980 -0.412674
v 1.444611 -0.272600 -0.326488
v 0.720599 0.118744 -0.272301
v 0.720599 -0.250008 -0.160449
v -0.003412 0.126235 -0.227687
v -0.003412 -0.238694 -0.103931
v -0.727424 0.118888 -0.272238
v -0.727424 -0.249923 -0.160582
v -1.451436 0.103264 -0.412603
v -1.451434 -0.272375 -0.326675
v -2.175446 0.096497 -0.631229
v -2.175446 -0.284237 -0.571814
v -2.899456 0.115181 -0.810744
v -2.899456 -0.268373 -0.773659
v -3.623468 0.143309 -0.949245
v -3.623468 -0.241508 -0.929127
v 3.616642 0.248103 1.047935
v 2.892632 0.308223 1.179823
v 2.168622 0.405707 1.344601
v 1.444611 0.550307 1.536659
v 0.720600 0.699276 1.641591
v -0.003411 0.768552 1.666364
v -0.727423 0.698404 1.641962
v -1.451434 0.549248 1.537038
v -2.175446 0.404873 1.344854
v -2.899456 0.307658 1.179973
v -3.623468 0.247724 1.048027
v -4.347478 -0.170394 1.004037
v -3.623468 -0.137093 1.068145
v -2.899456 -0.075896 1.217057
v -2.175446 0.024139 1.404269
v -1.451436 0.173608 1.622965
v -0.727423 0.329593 1.753618
v -0.003411 0.403624 1.790120
v 0.720600 0.330524 1.753443
v 1.444610 0.174727 1.622846
v 2.168622 0.025010 1.404252
v 2.892632 -0.075312 1.217092
v 3.616642 -0.136706 1.068193
vn -0.0187 -0.9994 0.0282
vn 0.0309 -0.9993 0.0225
vn 0.0130 -0.9997 0.0187
vn 0.0021 0.0069 1.0000
vn -0.0056 0.0225 0.9997
vn -0.0022 0.0156 0.9999
vn 1.0000 -0.0088 -0.0000
vn 1.0000 -0.0090 -0.0000
vn -0.0207 0.9995 -0.0257
vn 0.0347 0.9991 -0.0222
vn 0.0171 0.9997 -0.0173
vn -1.0000 0.0079 0.0002
vn -1.0000 -0.0000 0.0017
vn -1.0000 0.0011 0.0015
vn 0.0023 -0.0070 -1.0000
vn -0.0063 -0.0222 -0.9997
vn -0.0023 -0.0152 -0.9999
vn -0.0022 -0.0154 -0.9999
vn 0.0056 -0.0000 -1.0000
vn 0.0021 -0.0070 -1.0000
vn -0.0848 -0.0431 -0.9955
vn -0.0746 -0.0224 -0.9970
vn -0.0791 -0.0316 -0.9964
vn -0.1997 -0.0817 -0.9764
vn -0.1857 -0.0517 -0.9812
vn -0.1918 -0.0647 -0.9793
vn -0.2551 -0.1329 -0.9577
vn -0.2373 -0.0940 -0.9669
vn -0.2450 -0.1106 -0.9632
vn -0.3091 -0.1671 -0.9362
vn -0.3194 -0.1467 -0.9362
vn -0.2951 -0.1940 -0.9356
vn -0.2137 -0.2386 -0.9473
vn -0.2246 -0.2179 -0.9498
vn -0.1997 -0.2645 -0.9435
vn -0.0735 -0.3108 -0.9476
vn -0.0619 -0.2897 -0.9551
vn -0.0671 -0.2992 -0.9518
vn 0.0736 -0.2988 -0.9515
vn 0.0614 -0.3206 -0.9452
vn 0.0669 -0.3107 -0.9481
vn 0.2131 -0.2634 -0.9409
vn 0.2228 -0.2825 -0.9330
vn 0.2003 -0.2385 -0.9503
vn 0.3081 -0.1929 -0.9316
vn 0.3166 -0.2115 -0.9247
vn 0.2961 -0.1668 -0.9405
vn 0.2561 -0.1102 -0.9603
vn 0.2343 -0.1499 -0.9605
vn 0.2440 -0.1324 -0.9607
vn 0.2004 -0.0645 -0.9776
vn 0.1835 -0.0946 -0.9785
vn 0.1911 -0.0811 -0.9782
vn 0.0851 -0.0315 -0.9959
vn 0.0734 -0.0521 -0.9959
vn 0.0787 -0.0427 -0.9960
vn 0.0172 0.9997 -0.0175
vn -0.0309 0.9995 -0.0000
vn -0.0280 0.9995 -0.0135
vn 0.0275 0.9990 -0.0345
vn -0.0341 0.9986 -0.0397
vn 0.0413 0.9966 -0.0713
vn -0.0355 0.9964 -0.0769
vn 0.0659 0.9903 -0.1225
vn -0.0265 0.9914 -0.1279
vn 0.0982 0.9777 -0.1857
vn -0.0103 0.9813 -0.1924
vn 0.1239 0.9597 -0.2522
vn 0.0045 0.9650 -0.2621
vn 0.1029 0.9478 -0.3019
vn -0.0001 0.9549 -0.2968
vn -0.0044 0.9652 -0.2615
vn -0.1036 0.9478 -0.3015
vn 0.0103 0.9814 -0.1918
vn -0.1240 0.9599 -0.2516
vn 0.0265 0.9915 -0.1274
vn -0.0981 0.9778 -0.1851
vn 0.0354 0.9964 -0.0764
vn -0.0658 0.9904 -0.1219
vn 0.0340 0.9986 -0.0394
vn -0.0411 0.9966 -0.0709
vn -0.0023 0.0153 0.9999
vn 0.0063 -0.0001 1.0000
vn 0.0024 0.0070 1.0000
vn -0.0851 0.0427 0.9955
vn -0.0734 0.0222 0.9971
vn -0.0787 0.0315 0.9964
vn -0.2005 0.0809 0.9763
vn -0.1832 0.0513 0.9817
vn -0.1910 0.0646 0.9795
vn -0.2566 0.1319 0.9575
vn -0.2330 0.0936 0.9680
vn -0.2435 0.1106 0.9636
vn -0.3071 0.1656 0.9372
vn -0.3136 0.1464 0.9382
vn -0.2971 0.1942 0.9349
vn -0.2117 0.2371 0.9481
vn -0.2185 0.2176 0.9513
vn -0.2017 0.2648 0.9430
vn -0.0740 0.3105 0.9477
vn -0.0602 0.2892 0.9554
vn -0.0666 0.2990 0.9519
vn 0.0731 0.2989 0.9515
vn 0.0630 0.3205 0.9451
vn 0.0675 0.3111 0.9480
vn 0.2152 0.2634 0.9404
vn 0.2288 0.2826 0.9316
vn 0.1982 0.2396 0.9504
vn 0.3101 0.1928 0.9309
vn 0.3223 0.2117 0.9226
vn 0.2940 0.1680 0.9409
vn 0.2547 0.1101 0.9607
vn 0.2386 0.1503 0.9594
vn 0.2454 0.1335 0.9602
vn 0.1996 0.0646 0.9777
vn 0.1860 0.0950 0.9779
vn 0.1919 0.0819 0.9780
vn 0.0847 0.0316 0.9959
vn 0.0746 0.0524 0.9958
vn 0.0791 0.0432 0.9959
vn 0.0129 -0.9997 0.0185
vn -0.0231 -0.9997 0.0055
vn -0.0255 -0.9996 0.0155
vn 0.0236 -0.9991 0.0343
vn -0.0336 -0.9987 0.0393
vn 0.0409 -0.9966 0.0711
vn -0.0347 -0.9965 0.0761
vn 0.0654 -0.9903 0.1223
vn -0.0255 -0.9916 0.1268
vn 0.0974 -0.9778 0.1857
vn -0.0092 -0.9815 0.1912
vn 0.1230 -0.9598 0.2523
vn 0.0050 -0.9653 0.2611
vn 0.1022 -0.9479 0.3018
vn 0.0001 -0.9549 0.2968
vn -0.0051 -0.9652 0.2616
vn -0.1015 -0.9478 0.3021
vn 0.0092 -0.9814 0.1918
vn -0.1229 -0.9597 0.2529
vn 0.0256 -0.9915 0.1274
vn -0.0975 -0.9776 0.1863
vn 0.0348 -0.9965 0.0766
vn -0.0655 -0.9903 0.1229
vn 0.0337 -0.9986 0.0396
vn -0.0411 -0.9966 0.0715
vn -0.0234 -0.9997 0.0056
vn 0.0056 -0.0001 1.0000
vn 1.0000 -0.0087 -0.0000
vn -0.0308 0.9995 0.0001
vn -1.0000 0.0090 -0.0000
vn 0.0063 -0.0000 -1.0000
vn -0.0058 -0.0225 -0.9997
vn -0.0893 -0.0524 -0.9946
vn -0.2057 -0.0946 -0.9740
vn -0.2626 -0.1494 -0.9533
vn -0.2842 -0.2144 -0.9345
vn -0.1884 -0.2851 -0.9398
vn -0.0787 -0.3202 -0.9441
vn 0.0791 -0.2888 -0.9541
vn 0.1903 -0.2189 -0.9570
vn 0.2872 -0.1477 -0.9464
vn 0.2655 -0.0928 -0.9596
vn 0.2079 -0.0511 -0.9768
vn 0.0904 -0.0221 -0.9957
vn -0.0007 0.9470 -0.3212
vn -0.0061 0.0222 0.9997
vn -0.0905 0.0520 0.9945
vn -0.2082 0.0941 0.9735
vn -0.2668 0.1486 0.9522
vn -0.2902 0.2134 0.9329
vn -0.1946 0.2842 0.9388
vn -0.0803 0.3201 0.9440
vn 0.0775 0.2894 0.9541
vn 0.1841 0.2198 0.9580
vn 0.2812 0.1486 0.9481
vn 0.2613 0.0934 0.9607
vn 0.2054 0.0515 0.9773
vn 0.0892 0.0224 0.9958
vn 0.0006 -0.9470 0.3212
vt 0.857143 0.500000
vt 0.625000 0.267857
vt 0.625000 0.982143
vt 0.857143 0.750000
vt 0.875000 0.750000
vt 0.625000 1.000000
vt 0.625000 0.000000
vt 0.875000 0.500000
vt 0.625000 0.250000
vt 0.142857 0.750000
vt 0.375000 0.982143
vt 0.375000 0.000000
vt 0.375000 1.000000
vt 0.125000 0.750000
vt 0.125000 0.500000
vt 0.375000 0.250000
vt 0.357143 0.500000
vt 0.375000 0.482143
vt 0.357143 0.750000
vt 0.375000 0.767857
vt 0.375000 0.750000
vt 0.375000 0.500000
vt 0.625000 0.750000
vt 0.625000 0.500000
vt 0.625000 0.482143
vt 0.642857 0.500000
vt 0.375000 0.267857
vt 0.142857 0.500000
vt 0.375000 0.285714
vt 0.160714 0.500000
vt 0.625000 0.285714
vt 0.839286 0.500000
vt 0.375000 0.303571
vt 0.178571 0.500000
vt 0.625000 0.303571
vt 0.821429 0.500000
vt 0.375000 0.321429
vt 0.196429 0.500000
vt 0.625000 0.321429
vt 0.803571 0.500000
vt 0.375000 0.339286
vt 0.214286 0.500000
vt 0.625000 0.339286
vt 0.785714 0.500000
vt 0.375000 0.357143
vt 0.232143 0.500000
vt 0.625000 0.357143
vt 0.767857 0.500000
vt 0.375000 0.375000
vt 0.250000 0.500000
vt 0.625000 0.375000
vt 0.750000 0.500000
vt 0.375000 0.392857
vt 0.267857 0.500000
vt 0.625000 0.392857
vt 0.732143 0.500000
vt 0.375000 0.410714
vt 0.285714 0.500000
vt 0.625000 0.410714
vt 0.714286 0.500000
vt 0.375000 0.428571
vt 0.303571 0.500000
vt 0.625000 0.428571
vt 0.696429 0.500000
vt 0.375000 0.446429
vt 0.321429 0.500000
vt 0.625000 0.446429
vt 0.678571 0.500000
vt 0.375000 0.464286
vt 0.339286 0.500000
vt 0.625000 0.464286
vt 0.660714 0.500000
vt 0.160714 0.750000
vt 0.375000 0.964286
vt 0.178571 0.750000
vt 0.375000 0.946429
vt 0.196429 0.750000
vt 0.375000 0.928571
vt 0.214286 0.750000
vt 0.375000 0.910714
vt 0.232143 0.750000
vt 0.375000 0.892857
vt 0.250000 0.750000
vt 0.375000 0.875000
vt 0.267857 0.750000
vt 0.375000 0.857143
vt 0.285714 0.750000
vt 0.375000 0.839286
vt 0.303571 0.750000
vt 0.375000 0.821429
vt 0.321429 0.750000
vt 0.375000 0.803571
vt 0.339286 0.750000
vt 0.375000 0.785714
vt 0.625000 0.767857
vt 0.642857 0.750000
vt 0.625000 0.785714
vt 0.660714 0.750000
vt 0.625000 0.803571
vt 0.678572 0.750000
vt 0.625000 0.821429
vt 0.696429 0.750000
vt 0.625000 0.839286
vt 0.714286 0.750000
vt 0.625000 0.857143
vt 0.732143 0.750000
vt 0.625000 0.875000
vt 0.750000 0.750000
vt 0.625000 0.892857
vt 0.767857 0.750000
vt 0.625000 0.910714
vt 0.785714 0.750000
vt 0.625000 0.928571
vt 0.803571 0.750000
vt 0.625000 0.946429
vt 0.821429 0.750000
vt 0.625000 0.964286
vt 0.839286 0.750000
s 1
usemtl Material.010
f 2/4/1 1/1/2 4/8/3
f 6/13/4 5/11/5 2/3/6
f 7/16/7 6/12/8 3/7/8
f 9/19/9 8/17/10 11/22/11
f 10/21/12 11/22/13 13/24/14
f 11/22/15 8/18/16 14/25/17
f 15/27/18 7/16/19 4/9/20
f 16/29/21 15/27/22 1/2/23
f 18/33/24 16/29/25 17/31/26
f 20/37/27 18/33/28 19/35/29
f 20/37/30 21/39/31 23/43/32
f 22/41/33 23/43/34 25/47/35
f 26/49/36 24/45/37 25/47/38
f 28/53/39 26/49/40 27/51/41
f 28/53/42 29/55/43 31/59/44
f 30/57/45 31/59/46 33/63/47
f 34/65/48 32/61/49 33/63/50
f 36/69/51 34/65/52 35/67/53
f 8/18/54 36/69/55 37/71/56
f 6/14/57 7/15/58 15/28/59
f 5/10/60 15/28/59 16/30/61
f 38/73/62 16/30/61 18/34/63
f 39/75/64 18/34/63 20/38/65
f 40/77/66 20/38/65 22/42/67
f 41/79/68 22/42/67 24/46/69
f 42/81/70 24/46/69 26/50/71
f 26/50/71 28/54/72 44/85/73
f 28/54/72 30/58/74 45/87/75
f 30/58/74 32/62/76 46/89/77
f 32/62/76 34/66/78 47/91/79
f 34/66/78 36/70/80 48/93/81
f 36/70/80 8/17/10 9/19/9
f 9/20/82 10/21/83 12/23/84
f 48/94/85 9/20/86 49/95/87
f 47/92/88 48/94/89 50/97/90
f 46/90/91 47/92/92 51/99/93
f 46/90/94 52/101/95 53/103/96
f 45/88/97 53/103/98 54/105/99
f 43/84/100 44/86/101 54/105/102
f 42/82/103 43/84/104 55/107/105
f 42/82/106 56/109/107 57/111/108
f 41/80/109 57/111/110 58/113/111
f 39/76/112 40/78/113 58/113/114
f 38/74/115 39/76/116 59/115/117
f 5/11/118 38/74/119 60/117/120
f 12/23/121 13/24/122 14/26/123
f 49/96/124 14/26/123 37/72/125
f 50/98/126 37/72/125 35/68/127
f 51/100/128 35/68/127 33/64/129
f 52/102/130 33/64/129 31/60/131
f 53/104/132 31/60/131 29/56/133
f 54/106/134 29/56/133 27/52/135
f 27/52/135 25/48/136 56/110/137
f 25/48/136 23/44/138 57/112/139
f 23/44/138 21/40/140 58/114/141
f 21/40/140 19/36/142 59/116/143
f 19/36/142 17/32/144 60/118/145
f 17/32/144 1/1/2 2/4/1
f 2/4/1 4/8/3 3/5/146
f 6/13/4 2/3/6 3/6/147
f 7/16/7 3/7/8 4/9/148
f 9/19/9 11/22/11 10/21/149
f 10/21/12 13/24/14 12/23/150
f 11/22/15 14/25/17 13/24/151
f 15/27/18 4/9/20 1/2/152
f 16/29/21 1/2/23 17/31/153
f 18/33/24 17/31/26 19/35/154
f 20/37/27 19/35/29 21/39/155
f 20/37/30 23/43/32 22/41/156
f 22/41/33 25/47/35 24/45/157
f 26/49/36 25/47/38 27/51/158
f 28/53/39 27/51/41 29/55/159
f 28/53/42 31/59/44 30/57/160
f 30/57/45 33/63/47 32/61/161
f 34/65/48 33/63/50 35/67/162
f 36/69/51 35/67/53 37/71/163
f 8/18/54 37/71/56 14/25/164
f 6/14/57 15/28/59 5/10/60
f 5/10/60 16/30/61 38/73/62
f 38/73/62 18/34/63 39/75/64
f 39/75/64 20/38/65 40/77/66
f 40/77/66 22/42/67 41/79/68
f 41/79/68 24/46/69 42/81/70
f 42/81/70 26/50/71 43/83/165
f 26/50/71 44/85/73 43/83/165
f 28/54/72 45/87/75 44/85/73
f 30/58/74 46/89/77 45/87/75
f 32/62/76 47/91/79 46/89/77
f 34/66/78 48/93/81 47/91/79
f 36/70/80 9/19/9 48/93/81
f 9/20/82 12/23/84 49/95/166
f 48/94/85 49/95/87 50/97/167
f 47/92/88 50/97/90 51/99/168
f 46/90/91 51/99/93 52/101/169
f 46/90/94 53/103/96 45/88/170
f 45/88/97 54/105/99 44/86/171
f 43/84/100 54/105/102 55/107/172
f 42/82/103 55/107/105 56/109/173
f 42/82/106 57/111/108 41/80/174
f 41/80/109 58/113/111 40/78/175
f 39/76/112 58/113/114 59/115/176
f 38/74/115 59/115/117 60/117/177
f 5/11/118 60/117/120 2/3/178
f 12/23/121 14/26/123 49/96/124
f 49/96/124 37/72/125 50/98/126
f 50/98/126 35/68/127 51/100/128
f 51/100/128 33/64/129 52/102/130
f 52/102/130 31/60/131 53/104/132
f 53/104/132 29/56/133 54/106/134
f 54/106/134 27/52/135 55/108/179
f 27/52/135 56/110/137 55/108/179
f 25/48/136 57/112/139 56/110/137
f 23/44/138 58/114/141 57/112/139
f 21/40/140 59/116/143 58/114/141
f 19/36/142 60/118/145 59/116/143
f 17/32/144 2/4/1 60/118/145
